<svg xmlns="http://www.w3.org/2000/svg" viewBox="0 0 480 480" fill="#f0db4f"><path d="M56 416c-30.872 0-56 25.128-56 56 0 4.424 3.576 8 8 8h96c4.424 0 8-3.576 8-8 0-30.872-25.128-56-56-56zm-39.192 48C19.992 448.36 32.36 436.072 48 432.88V448h16v-15.12c15.64 3.2 28.008 15.48 31.192 31.12H16.808zM472 344h-14.032a83.97 83.97 0 00-1.392-3.328l9.928-9.928a7.991 7.991 0 000-11.312l-33.936-33.936c-1.656-1.656-3.84-2.376-6.008-2.272C439.24 276.496 448 263.32 448 248V40c0-22.056-17.944-40-40-40H40C17.944 0 0 17.944 0 40v208c0 22.056 17.944 40 40 40h104.4l-30.224 56H100c-15.44 0-28 12.56-28 28s12.56 28 28 28h172c0 4.424 3.576 8 8 8h14.032a83.97 83.97 0 001.392 3.328l-9.928 9.928a7.991 7.991 0 000 11.312l33.936 33.936a7.991 7.991 0 0011.312 0l9.928-9.928a83.97 83.97 0 003.328 1.392V472c0 4.424 3.576 8 8 8h48c4.424 0 8-3.576 8-8v-14.032a83.97 83.97 0 003.328-1.392l9.928 9.928a7.991 7.991 0 0011.312 0l33.936-33.936a7.991 7.991 0 000-11.312l-9.928-9.928a83.97 83.97 0 001.392-3.328H472c4.424 0 8-3.576 8-8v-48c0-4.424-3.576-8-8-8zM16 40c0-13.232 10.768-24 24-24h368c13.232 0 24 10.768 24 24v168H16V40zm24 232c-13.232 0-24-10.768-24-24v-24h416v24c0 13.232-10.768 24-24 24H40zm381.152 13.6l-9.824 9.824a83.97 83.97 0 00-3.328-1.392V288c4.632 0 9.008-.944 13.152-2.4zM344 288v6.032a83.97 83.97 0 00-3.328 1.392L333.248 288H344zm-27.08 0l-6.896 6.896-4.696-6.896h11.592zM272 384H100c-6.616 0-12-5.384-12-12s5.384-12 12-12h172v24zm-139.644-40.008L162.576 288h123.392l12.544 18.408-13.016 13.016a7.991 7.991 0 000 11.312l9.928 9.928a83.97 83.97 0 00-1.392 3.328H132.356zM464 392h-11.672a8.005 8.005 0 00-7.632 5.592c-1.216 3.864-2.856 7.8-4.88 11.672a8.002 8.002 0 001.44 9.36l8.288 8.288-22.624 22.624-8.288-8.288a8.017 8.017 0 00-9.36-1.44c-3.872 2.024-7.808 3.664-11.672 4.88a8.019 8.019 0 00-5.6 7.64V464h-32v-11.672a8.005 8.005 0 00-5.592-7.632c-3.864-1.216-7.8-2.856-11.672-4.88a8.015 8.015 0 00-9.36 1.44l-8.288 8.288-22.624-22.624 8.288-8.288a8.002 8.002 0 001.44-9.36c-2.024-3.872-3.664-7.808-4.88-11.672a8.019 8.019 0 00-7.64-5.6H288v-32h11.672a8.005 8.005 0 007.632-5.592c1.216-3.864 2.856-7.8 4.88-11.672a8.002 8.002 0 00-1.44-9.36l-8.288-8.288 22.624-22.624 8.288 8.288a7.99 7.99 0 009.36 1.44c3.872-2.024 7.808-3.664 11.672-4.88a8.019 8.019 0 005.6-7.64V288h32v11.672a8.005 8.005 0 005.592 7.632c3.864 1.216 7.8 2.856 11.672 4.88a7.992 7.992 0 009.36-1.44l8.288-8.288 22.624 22.624-8.288 8.288a8.002 8.002 0 00-1.44 9.36c2.024 3.872 3.664 7.808 4.88 11.672a8.019 8.019 0 007.64 5.6H464v32z"/><path d="M376 328c-26.472 0-48 21.528-48 48s21.528 48 48 48 48-21.528 48-48-21.528-48-48-48zm0 80c-17.648 0-32-14.352-32-32s14.352-32 32-32 32 14.352 32 32-14.352 32-32 32zM157.656 61.656l-11.312-11.312-56 56a7.991 7.991 0 000 11.312l56 56 11.312-11.312L107.312 112l50.344-50.344zm176 44.688l-56-56-11.312 11.312L316.688 112l-50.344 50.344 11.312 11.312 56-56a7.991 7.991 0 000-11.312zm-164.82 66.081l71.979-143.958 14.31 7.155-71.979 143.958zM312 160h16v16h-16zm32 0h16v16h-16zm32 0h16v16h-16z"/></svg>