<svg width="24" height="24" xmlns="http://www.w3.org/2000/svg" fill="#fff" fill-rule="evenodd" clip-rule="evenodd" stroke-linejoin="round" stroke-miterlimit="1.414"><path d="M12 0C5.373 0 0 5.373 0 12s5.373 12 12 12 12-5.373 12-12S18.627 0 12 0zm0 2c5.514 0 10 4.486 10 10s-4.486 10-10 10S2 17.514 2 12 6.486 2 12 2zm2.692 14.889a.59.59 0 00.553.073.576.576 0 00.362-.42c.435-2.042 1.489-7.211 1.884-9.068a.39.39 0 00-.129-.379.404.404 0 00-.399-.07c-2.096.776-8.553 3.198-11.192 4.175a.412.412 0 00.025.781c1.184.354 2.738.847 2.738.847s.725 2.193 1.104 3.308a.431.431 0 00.707.184l1.548-1.461s1.786 1.309 2.799 2.03zm-5.505-4.338l.84 2.769.186-1.754 5.092-4.593a.137.137 0 00.017-.188.143.143 0 00-.188-.032l-5.947 3.798z"/></svg>